<svg id="Layer_1" data-name="Layer 1" xmlns="http://www.w3.org/2000/svg" viewBox="0 0 719.34 459.64"><defs><style>.cls-1{fill:#fff;}</style></defs><path class="cls-1" d="M141.53,87.6S-19.79,122.72,29.3,269.47c19,56.91,76.07,92.83,135.35,83.51,1-.15,2-.32,2.95-.5,60.49-10.73,102.27-67.61,91.66-128.11-.18-1.06-.39-2.13-.6-3.21H149.23V263.3h52.4s-43.17,72.31-96.14,32.34c-13.9-10.48-23.74-25.39-28.91-42C67.11,223.18,59.15,167,117.82,143.57c16.09-6.43,33.81-8.11,50.58-3.76,14.11,3.66,28.61,11.75,30.15,29.47h53.94Z"/><path class="cls-1" d="M167.73,87.6l84.76,61.65s3.09-21.58-26.2-49.32C226.29,99.93,204.78,79,167.73,87.6Z"/><polygon class="cls-1" points="378.17 185.57 424.43 172.28 434.28 351.43 382.6 351.43 378.17 185.57"/><polygon class="cls-1" points="378.26 150.47 373.25 79.27 421.48 79.27 423.94 149.25 378.26 150.47"/><polygon class="cls-1" points="286.61 165.01 320.73 190.35 463.81 155.55 286.61 165.01"/><path class="cls-1" d="M138.26,82.11l1.4-.3a51.24,51.24,0,0,1,19.16-.36l3.85.66-95-64.29Z"/><path class="cls-1" d="M441,79.27s10.76,101,9,158.35.21,113.81.21,113.81h50s-6.27-157.73-4.48-187.31l-.9-84.85Z"/><polygon class="cls-1" points="488.4 167.7 544.12 167.7 579.98 242.1 640.03 167.7 697.4 167.7 476 443.78 423.94 443.78 548.6 283.33 488.4 167.7"/><path class="cls-1" d="M257.69,150.47l2,24.05,33.23,32.63,3.31-3.12A33.94,33.94,0,0,1,310,196.18l5.57-1.62Z"/><path class="cls-1" d="M376.54,217.79c-9.05-10.81-23-21.12-43.43-21.07-13.88,0-27.25,5-38.42,13.23-14,10.28-32.85,29.64-34.84,60-1.37,21.07,5.67,42.05,20.44,57.14,15.21,15.55,41.78,28.36,83.77,5.66,0,0,35-19.85,29.1-74.69A75,75,0,0,0,376.54,217.79ZM318.13,315S292,313,296,270.87s33.47-40,33.47-40c17.89,0,24.95,17.59,27.73,30.72A55.42,55.42,0,0,1,355.67,291C345.26,321.41,318.13,315,318.13,315Z"/></svg>